<svg aria-roledescription="mindmap" role="graphics-document document" style="overflow: hidden; max-width: 100%;" xmlns="http://www.w3.org/2000/svg" width="1192px" id="graph-div" height="1059px" xmlns:xlink="http://www.w3.org/1999/xlink" xmlns:ev="http://www.w3.org/2001/xml-events"><style>@import url("https://cdnjs.cloudflare.com/ajax/libs/font-awesome/6.4.2/css/all.min.css");'</style><g id="viewport-20231109101101271" class="svg-pan-zoom_viewport" transform="matrix(1.0048800706863403,0,0,1.0048800706863403,-5.024374961853027,277.38555908203125)" style="transform: matrix(1.00488, 0, 0, 1.00488, -5.02438, 277.386);"><style>#graph-div{font-family:"trebuchet ms",verdana,arial,sans-serif;font-size:16px;fill:#ccc;}#graph-div .error-icon{fill:#a44141;}#graph-div .error-text{fill:#ddd;stroke:#ddd;}#graph-div .edge-thickness-normal{stroke-width:2px;}#graph-div .edge-thickness-thick{stroke-width:3.5px;}#graph-div .edge-pattern-solid{stroke-dasharray:0;}#graph-div .edge-pattern-dashed{stroke-dasharray:3;}#graph-div .edge-pattern-dotted{stroke-dasharray:2;}#graph-div .marker{fill:lightgrey;stroke:lightgrey;}#graph-div .marker.cross{stroke:lightgrey;}#graph-div svg{font-family:"trebuchet ms",verdana,arial,sans-serif;font-size:16px;}#graph-div .edge{stroke-width:3;}#graph-div .section--1 rect,#graph-div .section--1 path,#graph-div .section--1 circle,#graph-div .section--1 polygon,#graph-div .section--1 path{fill:#1f2020;}#graph-div .section--1 text{fill:lightgrey;}#graph-div .node-icon--1{font-size:40px;color:lightgrey;}#graph-div .section-edge--1{stroke:#1f2020;}#graph-div .edge-depth--1{stroke-width:17;}#graph-div .section--1 line{stroke:#e0dfdf;stroke-width:3;}#graph-div .disabled,#graph-div .disabled circle,#graph-div .disabled text{fill:lightgray;}#graph-div .disabled text{fill:#efefef;}#graph-div .section-0 rect,#graph-div .section-0 path,#graph-div .section-0 circle,#graph-div .section-0 polygon,#graph-div .section-0 path{fill:#0b0000;}#graph-div .section-0 text{fill:lightgrey;}#graph-div .node-icon-0{font-size:40px;color:lightgrey;}#graph-div .section-edge-0{stroke:#0b0000;}#graph-div .edge-depth-0{stroke-width:14;}#graph-div .section-0 line{stroke:#f4ffff;stroke-width:3;}#graph-div .disabled,#graph-div .disabled circle,#graph-div .disabled text{fill:lightgray;}#graph-div .disabled text{fill:#efefef;}#graph-div .section-1 rect,#graph-div .section-1 path,#graph-div .section-1 circle,#graph-div .section-1 polygon,#graph-div .section-1 path{fill:#4d1037;}#graph-div .section-1 text{fill:lightgrey;}#graph-div .node-icon-1{font-size:40px;color:lightgrey;}#graph-div .section-edge-1{stroke:#4d1037;}#graph-div .edge-depth-1{stroke-width:11;}#graph-div .section-1 line{stroke:#b2efc8;stroke-width:3;}#graph-div .disabled,#graph-div .disabled circle,#graph-div .disabled text{fill:lightgray;}#graph-div .disabled text{fill:#efefef;}#graph-div .section-2 rect,#graph-div .section-2 path,#graph-div .section-2 circle,#graph-div .section-2 polygon,#graph-div .section-2 path{fill:#3f5258;}#graph-div .section-2 text{fill:lightgrey;}#graph-div .node-icon-2{font-size:40px;color:lightgrey;}#graph-div .section-edge-2{stroke:#3f5258;}#graph-div .edge-depth-2{stroke-width:8;}#graph-div .section-2 line{stroke:#c0ada7;stroke-width:3;}#graph-div .disabled,#graph-div .disabled circle,#graph-div .disabled text{fill:lightgray;}#graph-div .disabled text{fill:#efefef;}#graph-div .section-3 rect,#graph-div .section-3 path,#graph-div .section-3 circle,#graph-div .section-3 polygon,#graph-div .section-3 path{fill:#4f2f1b;}#graph-div .section-3 text{fill:lightgrey;}#graph-div .node-icon-3{font-size:40px;color:lightgrey;}#graph-div .section-edge-3{stroke:#4f2f1b;}#graph-div .edge-depth-3{stroke-width:5;}#graph-div .section-3 line{stroke:#b0d0e4;stroke-width:3;}#graph-div .disabled,#graph-div .disabled circle,#graph-div .disabled text{fill:lightgray;}#graph-div .disabled text{fill:#efefef;}#graph-div .section-4 rect,#graph-div .section-4 path,#graph-div .section-4 circle,#graph-div .section-4 polygon,#graph-div .section-4 path{fill:#6e0a0a;}#graph-div .section-4 text{fill:lightgrey;}#graph-div .node-icon-4{font-size:40px;color:lightgrey;}#graph-div .section-edge-4{stroke:#6e0a0a;}#graph-div .edge-depth-4{stroke-width:2;}#graph-div .section-4 line{stroke:#91f5f5;stroke-width:3;}#graph-div .disabled,#graph-div .disabled circle,#graph-div .disabled text{fill:lightgray;}#graph-div .disabled text{fill:#efefef;}#graph-div .section-5 rect,#graph-div .section-5 path,#graph-div .section-5 circle,#graph-div .section-5 polygon,#graph-div .section-5 path{fill:#3b0048;}#graph-div .section-5 text{fill:lightgrey;}#graph-div .node-icon-5{font-size:40px;color:lightgrey;}#graph-div .section-edge-5{stroke:#3b0048;}#graph-div .edge-depth-5{stroke-width:-1;}#graph-div .section-5 line{stroke:#c4ffb7;stroke-width:3;}#graph-div .disabled,#graph-div .disabled circle,#graph-div .disabled text{fill:lightgray;}#graph-div .disabled text{fill:#efefef;}#graph-div .section-6 rect,#graph-div .section-6 path,#graph-div .section-6 circle,#graph-div .section-6 polygon,#graph-div .section-6 path{fill:#995a01;}#graph-div .section-6 text{fill:lightgrey;}#graph-div .node-icon-6{font-size:40px;color:lightgrey;}#graph-div .section-edge-6{stroke:#995a01;}#graph-div .edge-depth-6{stroke-width:-4;}#graph-div .section-6 line{stroke:#66a5fe;stroke-width:3;}#graph-div .disabled,#graph-div .disabled circle,#graph-div .disabled text{fill:lightgray;}#graph-div .disabled text{fill:#efefef;}#graph-div .section-7 rect,#graph-div .section-7 path,#graph-div .section-7 circle,#graph-div .section-7 polygon,#graph-div .section-7 path{fill:#154706;}#graph-div .section-7 text{fill:lightgrey;}#graph-div .node-icon-7{font-size:40px;color:lightgrey;}#graph-div .section-edge-7{stroke:#154706;}#graph-div .edge-depth-7{stroke-width:-7;}#graph-div .section-7 line{stroke:#eab8f9;stroke-width:3;}#graph-div .disabled,#graph-div .disabled circle,#graph-div .disabled text{fill:lightgray;}#graph-div .disabled text{fill:#efefef;}#graph-div .section-8 rect,#graph-div .section-8 path,#graph-div .section-8 circle,#graph-div .section-8 polygon,#graph-div .section-8 path{fill:#161722;}#graph-div .section-8 text{fill:lightgrey;}#graph-div .node-icon-8{font-size:40px;color:lightgrey;}#graph-div .section-edge-8{stroke:#161722;}#graph-div .edge-depth-8{stroke-width:-10;}#graph-div .section-8 line{stroke:#e9e8dd;stroke-width:3;}#graph-div .disabled,#graph-div .disabled circle,#graph-div .disabled text{fill:lightgray;}#graph-div .disabled text{fill:#efefef;}#graph-div .section-9 rect,#graph-div .section-9 path,#graph-div .section-9 circle,#graph-div .section-9 polygon,#graph-div .section-9 path{fill:#00296f;}#graph-div .section-9 text{fill:lightgrey;}#graph-div .node-icon-9{font-size:40px;color:lightgrey;}#graph-div .section-edge-9{stroke:#00296f;}#graph-div .edge-depth-9{stroke-width:-13;}#graph-div .section-9 line{stroke:#ffd690;stroke-width:3;}#graph-div .disabled,#graph-div .disabled circle,#graph-div .disabled text{fill:lightgray;}#graph-div .disabled text{fill:#efefef;}#graph-div .section-10 rect,#graph-div .section-10 path,#graph-div .section-10 circle,#graph-div .section-10 polygon,#graph-div .section-10 path{fill:#01629c;}#graph-div .section-10 text{fill:lightgrey;}#graph-div .node-icon-10{font-size:40px;color:lightgrey;}#graph-div .section-edge-10{stroke:#01629c;}#graph-div .edge-depth-10{stroke-width:-16;}#graph-div .section-10 line{stroke:#fe9d63;stroke-width:3;}#graph-div .disabled,#graph-div .disabled circle,#graph-div .disabled text{fill:lightgray;}#graph-div .disabled text{fill:#efefef;}#graph-div .section-root rect,#graph-div .section-root path,#graph-div .section-root circle,#graph-div .section-root polygon{fill:hsl(180, 1.5873015873%, 48.3529411765%);}#graph-div .section-root text{fill:#2c2c2c;}#graph-div .icon-container{height:100%;display:flex;justify-content:center;align-items:center;}#graph-div .edge{fill:none;}#graph-div .mindmap-node-label{dy:1em;alignment-baseline:middle;text-anchor:middle;dominant-baseline:middle;text-align:center;}#graph-div :root{--mermaid-font-family:"trebuchet ms",verdana,arial,sans-serif;}</style><g></g><g></g><g class="mindmap-edges"><path class="edge section-edge-0 edge-depth-1" d="M 459.93444042616875,165.53085461916464 L 378.72738535417557,131.48367362890585 L297.5203302821823,97.43649263864705"></path><path class="edge section-edge-0 edge-depth-0" d="M 617.6437817575334,242.09068898375455 L 552.4358935762255,210.0206339654941 L487.22800539491743,177.95057894723368"></path><path class="edge section-edge-1 edge-depth-1" d="M 825.3925266729823,331.2503563463909 L 916.4921080226394,357.1249617176125 L1007.5916893722965,382.9995670888341"></path><path class="edge section-edge-1 edge-depth-1" d="M 825.770759212827,324.7567401527775 L 900.3678079856645,312.68956878385524 L974.964856758502,300.62239741493295"></path><path class="edge section-edge-1 edge-depth-1" d="M 812.9766320537217,342.0163351766593 L 817.8557827537082,378.03777115296384 L822.7349334536948,414.0592071292684"></path><path class="edge section-edge-1 edge-depth-0" d="M 644.8532649064401,254.70701787242277 L 721.0336151692367,287.9313284952141 L797.2139654320332,321.1556391180054"></path><path class="edge section-edge-2 edge-depth-1" d="M 573.9326439706747,363.84812747963144 L 481.13712304590626,398.14424265221135 L388.34160212113784,432.44035782479125"></path><path class="edge section-edge-2 edge-depth-1" d="M 590.4391556437322,373.4488528900356 L 596.5742605967176,410.7141164826123 L602.7093655497031,447.97938007518906"></path><path class="edge section-edge-2 edge-depth-0" d="M 625.6289048130159,262.6756663467215 L 609.5532195346166,303.67933831426484 L593.4775342562173,344.68301028180815"></path><path class="edge section-edge-3 edge-depth-1" d="M 681.9035976286609,125.36319806757473 L 709.9939382125647,88.1666647804677 L738.0842787964682,50.970131493360654"></path><path class="edge section-edge-3 edge-depth-1" d="M 687.6194379630504,134.6362232741148 L 752.1573021124005,122.83959700301088 L816.6951662617507,111.04297073190695"></path><path class="edge section-edge-3 edge-depth-1" d="M 659.2263133581473,131.0870526069648 L 594.8893957671588,101.61952941390237 L530.5524781761703,72.15200622083994"></path><path class="edge section-edge-3 edge-depth-0" d="M 636.3701102870917,234.66537493384354 L 651.9839457848055,193.02195651338374 L667.5977812825193,151.37853809292395"></path><path class="edge section-edge-4 edge-depth-1" d="M 366.14050973615997,246.31975154404273 L 294.10627691849277,217.50257510324658 L222.0720441008256,188.68539866245044"></path><path class="edge section-edge-4 edge-depth-1" d="M 365.07416252755195,252.34063037418997 L 255.55871545659096,255.62346543927526 L146.04326838563003,258.90630050436056"></path><path class="edge section-edge-4 edge-depth-1" d="M 387.6252913659326,264.8479935230402 L 406.5226635615938,297.24464847573245 L425.420035757255,329.64130342842475"></path><path class="edge section-edge-4 edge-depth-1" d="M 366.8798203891898,259.03870994135605 L 310.12071249180684,289.8014338650141 L253.3616045944239,320.5641577886721"></path><path class="edge section-edge-4 edge-depth-0" d="M 616.1051858561467,248.90061711698777 L 505.58570495723995,250.30088804830044 L395.0662240583332,251.7011589796131"></path><path class="edge section-edge-5 edge-depth-1" d="M 874.1997305529542,214.0268868581757 L 969.1340948126,218.99556820826788 L1064.0684590722458,223.96424955836008"></path><path class="edge section-edge-5 edge-depth-1" d="M 872.970055158844,207.24769159701736 L 941.9033526800886,177.19139613159416 L1010.8366502013331,147.1351006661709"></path><path class="edge section-edge-5 edge-depth-0" d="M 645.9258973563835,246.40606074241057 L 745.1621075228124,230.97673636089596 L844.3983176892414,215.54741197938134"></path></g><g class="mindmap-nodes"><g transform="translate(526.1623164036416, 220.9105823214229)" class="mindmap-node section--1 section-root"><g transform="translate(104.94166564941406, 27.800001525878905)"><circle r="104.94166564941406" class="node-bkg node-circle" id="node-0"></circle></g><g transform="translate(104.94166564941406, 5)" text-anchor="middle" dominant-baseline="middle" alignment-baseline="middle" dy="1em"><g><rect class="background"></rect><text y="-10.1"><tspan dy="1.1em" y="-0.1em" x="0" class="text-outer-tspan"><tspan font-weight="normal" class="text-inner-tspan" font-style="normal">Przenośna</tspan><tspan font-weight="normal" class="text-inner-tspan" font-style="normal"> Serwerownia</tspan><tspan font-weight="normal" class="text-inner-tspan" font-style="normal"> w</tspan></tspan><tspan dy="1.1em" y="1em" x="0" class="text-outer-tspan"><tspan font-weight="normal" class="text-inner-tspan" font-style="normal">Kontenerkach</tspan></tspan></text></g></g></g><g transform="translate(376.0511379241021, 147.33068370221667)" class="mindmap-node section-0"><g><rect width="195.43333435058594" height="48.00000076293945" class="node-bkg node-rect" id="node-1"></rect></g><g transform="translate(97.71666717529297, 10)" text-anchor="middle" dominant-baseline="middle" alignment-baseline="middle" dy="1em"><g><rect class="background"></rect><text y="-10.1"><tspan dy="1.1em" y="-0.1em" x="0" class="text-outer-tspan"><tspan font-weight="normal" class="text-inner-tspan" font-style="normal">Oszczędność</tspan><tspan font-weight="normal" class="text-inner-tspan" font-style="normal"> miejsca</tspan></tspan></text></g></g></g><g transform="translate(192.53696408307707, 58.836661648246384)" class="mindmap-node section-0"><g><rect width="182.3000030517578" ry="20" rx="20" height="65.60000305175781" class="node-bkg node-rounded-rect" id="node-2"></rect></g><g transform="translate(91.1500015258789, 10)" text-anchor="middle" dominant-baseline="middle" alignment-baseline="middle" dy="1em"><g><rect class="background"></rect><text y="-10.1"><tspan dy="1.1em" y="-0.1em" x="0" class="text-outer-tspan"><tspan font-weight="normal" class="text-inner-tspan" font-style="normal">Dopasowanie</tspan><tspan font-weight="normal" class="text-inner-tspan" font-style="normal"> do</tspan></tspan><tspan dy="1.1em" y="1em" x="0" class="text-outer-tspan"><tspan font-weight="normal" class="text-inner-tspan" font-style="normal">przestrzeni</tspan><tspan font-weight="normal" class="text-inner-tspan" font-style="normal"> biurowej</tspan></tspan></text></g></g></g><g transform="translate(746.9382467595387, 303.15207276165665)" class="mindmap-node section-1"><g><rect width="128.0500030517578" height="48.00000076293945" class="node-bkg node-rect" id="node-3"></rect></g><g transform="translate(64.0250015258789, 10)" text-anchor="middle" dominant-baseline="middle" alignment-baseline="middle" dy="1em"><g><rect class="background"></rect><text y="-10.1"><tspan dy="1.1em" y="-0.1em" x="0" class="text-outer-tspan"><tspan font-weight="normal" class="text-inner-tspan" font-style="normal">Zarządzanie</tspan></tspan></text></g></g></g><g transform="translate(932.637636461033, 363.09784991062895)" class="mindmap-node section-1"><g><rect width="178.76666259765625" ry="20" rx="20" height="48.00000076293945" class="node-bkg node-rounded-rect" id="node-4"></rect></g><g transform="translate(89.38333129882812, 10)" text-anchor="middle" dominant-baseline="middle" alignment-baseline="middle" dy="1em"><g><rect class="background"></rect><text y="-10.1"><tspan dy="1.1em" y="-0.1em" x="0" class="text-outer-tspan"><tspan font-weight="normal" class="text-inner-tspan" font-style="normal">Łatwy</tspan><tspan font-weight="normal" class="text-inner-tspan" font-style="normal"> dostęp</tspan><tspan font-weight="normal" class="text-inner-tspan" font-style="normal"> dla</tspan><tspan font-weight="normal" class="text-inner-tspan" font-style="normal"> IT</tspan></tspan></text></g></g></g><g transform="translate(926.730699747679, 274.2270640431144)" class="mindmap-node section-1"><g><rect width="126.08333587646484" ry="20" rx="20" height="48.00000076293945" class="node-bkg node-rounded-rect" id="node-5"></rect></g><g transform="translate(63.04166793823242, 10)" text-anchor="middle" dominant-baseline="middle" alignment-baseline="middle" dy="1em"><g><rect class="background"></rect><text y="-10.1"><tspan dy="1.1em" y="-0.1em" x="0" class="text-outer-tspan"><tspan font-weight="normal" class="text-inner-tspan" font-style="normal">Organizacja</tspan></tspan></text></g></g></g><g transform="translate(746.9399828714129, 404.9234687813316)" class="mindmap-node section-1"><g><rect width="155.61666870117188" ry="20" rx="20" height="48.00000076293945" class="node-bkg node-rounded-rect" id="node-6"></rect></g><g transform="translate(77.80833435058594, 10)" text-anchor="middle" dominant-baseline="middle" alignment-baseline="middle" dy="1em"><g><rect class="background"></rect><text y="-10.1"><tspan dy="1.1em" y="-0.1em" x="0" class="text-outer-tspan"><tspan font-weight="normal" class="text-inner-tspan" font-style="normal">Bezpieczeństwo</tspan></tspan></text></g></g></g><g transform="translate(519.0941241914704, 334.6480923997582)" class="mindmap-node section-2"><g><rect width="137.81666564941406" height="48.00000076293945" class="node-bkg node-rect" id="node-7"></rect></g><g transform="translate(68.90833282470703, 10)" text-anchor="middle" dominant-baseline="middle" alignment-baseline="middle" dy="1em"><g><rect class="background"></rect><text y="-10.1"><tspan dy="1.1em" y="-0.1em" x="0" class="text-outer-tspan"><tspan font-weight="normal" class="text-inner-tspan" font-style="normal">Skalowalność</tspan></tspan></text></g></g></g><g transform="translate(284.8967890756351, 404.8403909973159)" class="mindmap-node section-2"><g><rect width="178.75" ry="20" rx="20" height="65.60000305175781" class="node-bkg node-rounded-rect" id="node-8"></rect></g><g transform="translate(89.375, 10)" text-anchor="middle" dominant-baseline="middle" alignment-baseline="middle" dy="1em"><g><rect class="background"></rect><text y="-10.1"><tspan dy="1.1em" y="-0.1em" x="0" class="text-outer-tspan"><tspan font-weight="normal" class="text-inner-tspan" font-style="normal">Dodawanie</tspan><tspan font-weight="normal" class="text-inner-tspan" font-style="normal"> nowych</tspan></tspan><tspan dy="1.1em" y="1em" x="0" class="text-outer-tspan"><tspan font-weight="normal" class="text-inner-tspan" font-style="normal">modułów</tspan></tspan></text></g></g></g><g transform="translate(494.8543924243281, 438.78013980252706)" class="mindmap-node section-2"><g><rect width="220.58334350585938" ry="20" rx="20" height="48.00000076293945" class="node-bkg node-rounded-rect" id="node-9"></rect></g><g transform="translate(110.29167175292969, 10)" text-anchor="middle" dominant-baseline="middle" alignment-baseline="middle" dy="1em"><g><rect class="background"></rect><text y="-10.1"><tspan dy="1.1em" y="-0.1em" x="0" class="text-outer-tspan"><tspan font-weight="normal" class="text-inner-tspan" font-style="normal">Dostosowanie</tspan><tspan font-weight="normal" class="text-inner-tspan" font-style="normal"> do</tspan><tspan font-weight="normal" class="text-inner-tspan" font-style="normal"> potrzeb</tspan></tspan></text></g></g></g><g transform="translate(616.1305759289089, 113.33332879799593)" class="mindmap-node section-3"><g><rect width="113.46666717529297" height="48.00000076293945" class="node-bkg node-rect" id="node-10"></rect></g><g transform="translate(56.733333587646484, 10)" text-anchor="middle" dominant-baseline="middle" alignment-baseline="middle" dy="1em"><g><rect class="background"></rect><text y="-10.1"><tspan dy="1.1em" y="-0.1em" x="0" class="text-outer-tspan"><tspan font-weight="normal" class="text-inner-tspan" font-style="normal">Wyzwania</tspan></tspan></text></g></g></g><g transform="translate(653.3073012591597, 15)" class="mindmap-node section-3"><g><rect width="187.63333129882812" ry="20" rx="20" height="48.00000076293945" class="node-bkg node-rounded-rect" id="node-11"></rect></g><g transform="translate(93.81666564941406, 10)" text-anchor="middle" dominant-baseline="middle" alignment-baseline="middle" dy="1em"><g><rect class="background"></rect><text y="-10.1"><tspan dy="1.1em" y="-0.1em" x="0" class="text-outer-tspan"><tspan font-weight="normal" class="text-inner-tspan" font-style="normal">Zarządzanie</tspan><tspan font-weight="normal" class="text-inner-tspan" font-style="normal"> ciepłem</tspan></tspan></text></g></g></g><g transform="translate(779.4423595947203, 84.34586444508636)" class="mindmap-node section-3"><g><rect width="104.01667022705078" ry="20" rx="20" height="48.00000076293945" class="node-bkg node-rounded-rect" id="node-12"></rect></g><g transform="translate(52.00833511352539, 10)" text-anchor="middle" dominant-baseline="middle" alignment-baseline="middle" dy="1em"><g><rect class="background"></rect><text y="-10.1"><tspan dy="1.1em" y="-0.1em" x="0" class="text-outer-tspan"><tspan font-weight="normal" class="text-inner-tspan" font-style="normal">Zasilanie</tspan></tspan></text></g></g></g><g transform="translate(407.17321331659036, 41.90572926686935)" class="mindmap-node section-3"><g><rect width="219.48333740234375" ry="20" rx="20" height="48.00000076293945" class="node-bkg node-rounded-rect" id="node-13"></rect></g><g transform="translate(109.74166870117188, 10)" text-anchor="middle" dominant-baseline="middle" alignment-baseline="middle" dy="1em"><g><rect class="background"></rect><text y="-10.1"><tspan dy="1.1em" y="-0.1em" x="0" class="text-outer-tspan"><tspan font-weight="normal" class="text-inner-tspan" font-style="normal">Organizacja</tspan><tspan font-weight="normal" class="text-inner-tspan" font-style="normal"> okablowania</tspan></tspan></text></g></g></g><g transform="translate(310.3590957996566, 227.89119186782932)" class="mindmap-node section-4"><g><rect width="139.41666412353516" height="48.00000076293945" class="node-bkg node-rect" id="node-14"></rect></g><g transform="translate(69.70833206176758, 10)" text-anchor="middle" dominant-baseline="middle" alignment-baseline="middle" dy="1em"><g><rect class="background"></rect><text y="-10.1"><tspan dy="1.1em" y="-0.1em" x="0" class="text-outer-tspan"><tspan font-weight="normal" class="text-inner-tspan" font-style="normal">Zastosowania</tspan></tspan></text></g></g></g><g transform="translate(88.75345574851059, 159.11395757572438)" class="mindmap-node section-4"><g><rect width="238.78334045410156" ry="20" rx="20" height="48.00000076293945" class="node-bkg node-rounded-rect" id="node-15"></rect></g><g transform="translate(119.39167022705078, 10)" text-anchor="middle" dominant-baseline="middle" alignment-baseline="middle" dy="1em"><g><rect class="background"></rect><text y="-10.1"><tspan dy="1.1em" y="-0.1em" x="0" class="text-outer-tspan"><tspan font-weight="normal" class="text-inner-tspan" font-style="normal">Elastyczność</tspan><tspan font-weight="normal" class="text-inner-tspan" font-style="normal"> dla</tspan><tspan font-weight="normal" class="text-inner-tspan" font-style="normal"> start-upów</tspan></tspan></text></g></g></g><g transform="translate(15, 235.35573824778177)" class="mindmap-node section-4"><g><rect width="232.10000610351562" ry="20" rx="20" height="48.00000076293945" class="node-bkg node-rounded-rect" id="node-16"></rect></g><g transform="translate(116.05000305175781, 10)" text-anchor="middle" dominant-baseline="middle" alignment-baseline="middle" dy="1em"><g><rect class="background"></rect><text y="-10.1"><tspan dy="1.1em" y="-0.1em" x="0" class="text-outer-tspan"><tspan font-weight="normal" class="text-inner-tspan" font-style="normal">Tymczasowe</tspan><tspan font-weight="normal" class="text-inner-tspan" font-style="normal"> biura</tspan><tspan font-weight="normal" class="text-inner-tspan" font-style="normal"> i</tspan><tspan font-weight="normal" class="text-inner-tspan" font-style="normal"> eventy</tspan></tspan></text></g></g></g><g transform="translate(379.719564148238, 318.59810432069617)" class="mindmap-node section-4"><g><rect width="106.51667022705078" ry="20" rx="20" height="48.00000076293945" class="node-bkg node-rounded-rect" id="node-17"></rect></g><g transform="translate(53.25833511352539, 10)" text-anchor="middle" dominant-baseline="middle" alignment-baseline="middle" dy="1em"><g><rect class="background"></rect><text y="-10.1"><tspan dy="1.1em" y="-0.1em" x="0" class="text-outer-tspan"><tspan font-weight="normal" class="text-inner-tspan" font-style="normal">Edukacja</tspan></tspan></text></g></g></g><g transform="translate(136.58232994689655, 303.7116750992594)" class="mindmap-node section-4"><g><rect width="207.18333435058594" ry="20" rx="20" height="48.00000076293945" class="node-bkg node-rounded-rect" id="node-18"></rect></g><g transform="translate(103.59166717529297, 10)" text-anchor="middle" dominant-baseline="middle" alignment-baseline="middle" dy="1em"><g><rect class="background"></rect><text y="-10.1"><tspan dy="1.1em" y="-0.1em" x="0" class="text-outer-tspan"><tspan font-weight="normal" class="text-inner-tspan" font-style="normal">Dynamiczne</tspan><tspan font-weight="normal" class="text-inner-tspan" font-style="normal"> projekty</tspan><tspan font-weight="normal" class="text-inner-tspan" font-style="normal"> IT</tspan></tspan></text></g></g></g><g transform="translate(803.2035665802157, 189.24288849302036)" class="mindmap-node section-5"><g><rect width="112.03333282470703" height="48.00000076293945" class="node-bkg node-rect" id="node-19"></rect></g><g transform="translate(56.016666412353516, 10)" text-anchor="middle" dominant-baseline="middle" alignment-baseline="middle" dy="1em"><g><rect class="background"></rect><text y="-10.1"><tspan dy="1.1em" y="-0.1em" x="0" class="text-outer-tspan"><tspan font-weight="normal" class="text-inner-tspan" font-style="normal">Mobilność</tspan></tspan></text></g></g></g><g transform="translate(975.8896161785292, 200.74824716057594)" class="mindmap-node section-5"><g><rect width="206.31668090820312" ry="20" rx="20" height="48.00000076293945" class="node-bkg node-rounded-rect" id="node-20"></rect></g><g transform="translate(103.15834045410156, 10)" text-anchor="middle" dominant-baseline="middle" alignment-baseline="middle" dy="1em"><g><rect class="background"></rect><text y="-10.1"><tspan dy="1.1em" y="-0.1em" x="0" class="text-outer-tspan"><tspan font-weight="normal" class="text-inner-tspan" font-style="normal">Łatwe</tspan><tspan font-weight="normal" class="text-inner-tspan" font-style="normal"> przemieszczanie</tspan></tspan></text></g></g></g><g transform="translate(915.2114723676079, 117.13990300722844)" class="mindmap-node section-5"><g><rect width="218.75" ry="20" rx="20" height="48.00000076293945" class="node-bkg node-rounded-rect" id="node-21"></rect></g><g transform="translate(109.375, 10)" text-anchor="middle" dominant-baseline="middle" alignment-baseline="middle" dy="1em"><g><rect class="background"></rect><text y="-10.1"><tspan dy="1.1em" y="-0.1em" x="0" class="text-outer-tspan"><tspan font-weight="normal" class="text-inner-tspan" font-style="normal">Elastyczność</tspan><tspan font-weight="normal" class="text-inner-tspan" font-style="normal"> konfiguracji</tspan></tspan></text></g></g></g></g></g><defs><style id="svg-pan-zoom-controls-styles" type="text/css">.svg-pan-zoom-control { cursor: pointer; fill: black; fill-opacity: 0.333; } .svg-pan-zoom-control:hover { fill-opacity: 0.8; } .svg-pan-zoom-control-background { fill: white; fill-opacity: 0.5; } .svg-pan-zoom-control-background { fill-opacity: 0.8; }</style></defs><g id="svg-pan-zoom-controls" transform="translate(1123 983) scale(0.75)" class="svg-pan-zoom-control"><g id="svg-pan-zoom-zoom-in" transform="translate(30.5 5) scale(0.015)" class="svg-pan-zoom-control"><rect x="0" y="0" width="1500" height="1400" class="svg-pan-zoom-control-background"></rect><path d="M1280 576v128q0 26 -19 45t-45 19h-320v320q0 26 -19 45t-45 19h-128q-26 0 -45 -19t-19 -45v-320h-320q-26 0 -45 -19t-19 -45v-128q0 -26 19 -45t45 -19h320v-320q0 -26 19 -45t45 -19h128q26 0 45 19t19 45v320h320q26 0 45 19t19 45zM1536 1120v-960 q0 -119 -84.5 -203.5t-203.5 -84.5h-960q-119 0 -203.5 84.5t-84.5 203.5v960q0 119 84.5 203.5t203.5 84.5h960q119 0 203.5 -84.5t84.5 -203.5z" class="svg-pan-zoom-control-element"></path></g><g id="svg-pan-zoom-reset-pan-zoom" transform="translate(5 35) scale(0.4)" class="svg-pan-zoom-control"><rect x="2" y="2" width="182" height="58" class="svg-pan-zoom-control-background"></rect><path d="M33.051,20.632c-0.742-0.406-1.854-0.609-3.338-0.609h-7.969v9.281h7.769c1.543,0,2.701-0.188,3.473-0.562c1.365-0.656,2.048-1.953,2.048-3.891C35.032,22.757,34.372,21.351,33.051,20.632z" class="svg-pan-zoom-control-element"></path><path d="M170.231,0.5H15.847C7.102,0.5,0.5,5.708,0.5,11.84v38.861C0.5,56.833,7.102,61.5,15.847,61.5h154.384c8.745,0,15.269-4.667,15.269-10.798V11.84C185.5,5.708,178.976,0.5,170.231,0.5z M42.837,48.569h-7.969c-0.219-0.766-0.375-1.383-0.469-1.852c-0.188-0.969-0.289-1.961-0.305-2.977l-0.047-3.211c-0.03-2.203-0.41-3.672-1.142-4.406c-0.732-0.734-2.103-1.102-4.113-1.102h-7.05v13.547h-7.055V14.022h16.524c2.361,0.047,4.178,0.344,5.45,0.891c1.272,0.547,2.351,1.352,3.234,2.414c0.731,0.875,1.31,1.844,1.737,2.906s0.64,2.273,0.64,3.633c0,1.641-0.414,3.254-1.242,4.84s-2.195,2.707-4.102,3.363c1.594,0.641,2.723,1.551,3.387,2.73s0.996,2.98,0.996,5.402v2.32c0,1.578,0.063,2.648,0.19,3.211c0.19,0.891,0.635,1.547,1.333,1.969V48.569z M75.579,48.569h-26.18V14.022h25.336v6.117H56.454v7.336h16.781v6H56.454v8.883h19.125V48.569z M104.497,46.331c-2.44,2.086-5.887,3.129-10.34,3.129c-4.548,0-8.125-1.027-10.731-3.082s-3.909-4.879-3.909-8.473h6.891c0.224,1.578,0.662,2.758,1.316,3.539c1.196,1.422,3.246,2.133,6.15,2.133c1.739,0,3.151-0.188,4.236-0.562c2.058-0.719,3.087-2.055,3.087-4.008c0-1.141-0.504-2.023-1.512-2.648c-1.008-0.609-2.607-1.148-4.796-1.617l-3.74-0.82c-3.676-0.812-6.201-1.695-7.576-2.648c-2.328-1.594-3.492-4.086-3.492-7.477c0-3.094,1.139-5.664,3.417-7.711s5.623-3.07,10.036-3.07c3.685,0,6.829,0.965,9.431,2.895c2.602,1.93,3.966,4.73,4.093,8.402h-6.938c-0.128-2.078-1.057-3.555-2.787-4.43c-1.154-0.578-2.587-0.867-4.301-0.867c-1.907,0-3.428,0.375-4.565,1.125c-1.138,0.75-1.706,1.797-1.706,3.141c0,1.234,0.561,2.156,1.682,2.766c0.721,0.406,2.25,0.883,4.589,1.43l6.063,1.43c2.657,0.625,4.648,1.461,5.975,2.508c2.059,1.625,3.089,3.977,3.089,7.055C108.157,41.624,106.937,44.245,104.497,46.331z M139.61,48.569h-26.18V14.022h25.336v6.117h-18.281v7.336h16.781v6h-16.781v8.883h19.125V48.569z M170.337,20.14h-10.336v28.43h-7.266V20.14h-10.383v-6.117h27.984V20.14z" class="svg-pan-zoom-control-element"></path></g><g id="svg-pan-zoom-zoom-out" transform="translate(30.5 70) scale(0.015)" class="svg-pan-zoom-control"><rect x="0" y="0" width="1500" height="1400" class="svg-pan-zoom-control-background"></rect><path d="M1280 576v128q0 26 -19 45t-45 19h-896q-26 0 -45 -19t-19 -45v-128q0 -26 19 -45t45 -19h896q26 0 45 19t19 45zM1536 1120v-960q0 -119 -84.5 -203.5t-203.5 -84.5h-960q-119 0 -203.5 84.5t-84.5 203.5v960q0 119 84.5 203.5t203.5 84.5h960q119 0 203.5 -84.5 t84.5 -203.5z" class="svg-pan-zoom-control-element"></path></g></g></svg>