<svg aria-roledescription="mindmap" role="graphics-document document" style="overflow: hidden; max-width: 100%;" xmlns="http://www.w3.org/2000/svg" width="1192px" id="graph-div" height="1059px" xmlns:xlink="http://www.w3.org/1999/xlink" xmlns:ev="http://www.w3.org/2001/xml-events"><style>@import url("https://cdnjs.cloudflare.com/ajax/libs/font-awesome/6.4.2/css/all.min.css");'</style><g id="viewport-20231109082027671" class="svg-pan-zoom_viewport" transform="matrix(1.0036219358444214,0,0,1.0036219358444214,-5.018087387084961,263.8721008300781)" style="transform: matrix(1.00362, 0, 0, 1.00362, -5.01809, 263.872);"><style>#graph-div{font-family:"trebuchet ms",verdana,arial,sans-serif;font-size:16px;fill:#ccc;}#graph-div .error-icon{fill:#a44141;}#graph-div .error-text{fill:#ddd;stroke:#ddd;}#graph-div .edge-thickness-normal{stroke-width:2px;}#graph-div .edge-thickness-thick{stroke-width:3.5px;}#graph-div .edge-pattern-solid{stroke-dasharray:0;}#graph-div .edge-pattern-dashed{stroke-dasharray:3;}#graph-div .edge-pattern-dotted{stroke-dasharray:2;}#graph-div .marker{fill:lightgrey;stroke:lightgrey;}#graph-div .marker.cross{stroke:lightgrey;}#graph-div svg{font-family:"trebuchet ms",verdana,arial,sans-serif;font-size:16px;}#graph-div .edge{stroke-width:3;}#graph-div .section--1 rect,#graph-div .section--1 path,#graph-div .section--1 circle,#graph-div .section--1 polygon,#graph-div .section--1 path{fill:#1f2020;}#graph-div .section--1 text{fill:lightgrey;}#graph-div .node-icon--1{font-size:40px;color:lightgrey;}#graph-div .section-edge--1{stroke:#1f2020;}#graph-div .edge-depth--1{stroke-width:17;}#graph-div .section--1 line{stroke:#e0dfdf;stroke-width:3;}#graph-div .disabled,#graph-div .disabled circle,#graph-div .disabled text{fill:lightgray;}#graph-div .disabled text{fill:#efefef;}#graph-div .section-0 rect,#graph-div .section-0 path,#graph-div .section-0 circle,#graph-div .section-0 polygon,#graph-div .section-0 path{fill:#0b0000;}#graph-div .section-0 text{fill:lightgrey;}#graph-div .node-icon-0{font-size:40px;color:lightgrey;}#graph-div .section-edge-0{stroke:#0b0000;}#graph-div .edge-depth-0{stroke-width:14;}#graph-div .section-0 line{stroke:#f4ffff;stroke-width:3;}#graph-div .disabled,#graph-div .disabled circle,#graph-div .disabled text{fill:lightgray;}#graph-div .disabled text{fill:#efefef;}#graph-div .section-1 rect,#graph-div .section-1 path,#graph-div .section-1 circle,#graph-div .section-1 polygon,#graph-div .section-1 path{fill:#4d1037;}#graph-div .section-1 text{fill:lightgrey;}#graph-div .node-icon-1{font-size:40px;color:lightgrey;}#graph-div .section-edge-1{stroke:#4d1037;}#graph-div .edge-depth-1{stroke-width:11;}#graph-div .section-1 line{stroke:#b2efc8;stroke-width:3;}#graph-div .disabled,#graph-div .disabled circle,#graph-div .disabled text{fill:lightgray;}#graph-div .disabled text{fill:#efefef;}#graph-div .section-2 rect,#graph-div .section-2 path,#graph-div .section-2 circle,#graph-div .section-2 polygon,#graph-div .section-2 path{fill:#3f5258;}#graph-div .section-2 text{fill:lightgrey;}#graph-div .node-icon-2{font-size:40px;color:lightgrey;}#graph-div .section-edge-2{stroke:#3f5258;}#graph-div .edge-depth-2{stroke-width:8;}#graph-div .section-2 line{stroke:#c0ada7;stroke-width:3;}#graph-div .disabled,#graph-div .disabled circle,#graph-div .disabled text{fill:lightgray;}#graph-div .disabled text{fill:#efefef;}#graph-div .section-3 rect,#graph-div .section-3 path,#graph-div .section-3 circle,#graph-div .section-3 polygon,#graph-div .section-3 path{fill:#4f2f1b;}#graph-div .section-3 text{fill:lightgrey;}#graph-div .node-icon-3{font-size:40px;color:lightgrey;}#graph-div .section-edge-3{stroke:#4f2f1b;}#graph-div .edge-depth-3{stroke-width:5;}#graph-div .section-3 line{stroke:#b0d0e4;stroke-width:3;}#graph-div .disabled,#graph-div .disabled circle,#graph-div .disabled text{fill:lightgray;}#graph-div .disabled text{fill:#efefef;}#graph-div .section-4 rect,#graph-div .section-4 path,#graph-div .section-4 circle,#graph-div .section-4 polygon,#graph-div .section-4 path{fill:#6e0a0a;}#graph-div .section-4 text{fill:lightgrey;}#graph-div .node-icon-4{font-size:40px;color:lightgrey;}#graph-div .section-edge-4{stroke:#6e0a0a;}#graph-div .edge-depth-4{stroke-width:2;}#graph-div .section-4 line{stroke:#91f5f5;stroke-width:3;}#graph-div .disabled,#graph-div .disabled circle,#graph-div .disabled text{fill:lightgray;}#graph-div .disabled text{fill:#efefef;}#graph-div .section-5 rect,#graph-div .section-5 path,#graph-div .section-5 circle,#graph-div .section-5 polygon,#graph-div .section-5 path{fill:#3b0048;}#graph-div .section-5 text{fill:lightgrey;}#graph-div .node-icon-5{font-size:40px;color:lightgrey;}#graph-div .section-edge-5{stroke:#3b0048;}#graph-div .edge-depth-5{stroke-width:-1;}#graph-div .section-5 line{stroke:#c4ffb7;stroke-width:3;}#graph-div .disabled,#graph-div .disabled circle,#graph-div .disabled text{fill:lightgray;}#graph-div .disabled text{fill:#efefef;}#graph-div .section-6 rect,#graph-div .section-6 path,#graph-div .section-6 circle,#graph-div .section-6 polygon,#graph-div .section-6 path{fill:#995a01;}#graph-div .section-6 text{fill:lightgrey;}#graph-div .node-icon-6{font-size:40px;color:lightgrey;}#graph-div .section-edge-6{stroke:#995a01;}#graph-div .edge-depth-6{stroke-width:-4;}#graph-div .section-6 line{stroke:#66a5fe;stroke-width:3;}#graph-div .disabled,#graph-div .disabled circle,#graph-div .disabled text{fill:lightgray;}#graph-div .disabled text{fill:#efefef;}#graph-div .section-7 rect,#graph-div .section-7 path,#graph-div .section-7 circle,#graph-div .section-7 polygon,#graph-div .section-7 path{fill:#154706;}#graph-div .section-7 text{fill:lightgrey;}#graph-div .node-icon-7{font-size:40px;color:lightgrey;}#graph-div .section-edge-7{stroke:#154706;}#graph-div .edge-depth-7{stroke-width:-7;}#graph-div .section-7 line{stroke:#eab8f9;stroke-width:3;}#graph-div .disabled,#graph-div .disabled circle,#graph-div .disabled text{fill:lightgray;}#graph-div .disabled text{fill:#efefef;}#graph-div .section-8 rect,#graph-div .section-8 path,#graph-div .section-8 circle,#graph-div .section-8 polygon,#graph-div .section-8 path{fill:#161722;}#graph-div .section-8 text{fill:lightgrey;}#graph-div .node-icon-8{font-size:40px;color:lightgrey;}#graph-div .section-edge-8{stroke:#161722;}#graph-div .edge-depth-8{stroke-width:-10;}#graph-div .section-8 line{stroke:#e9e8dd;stroke-width:3;}#graph-div .disabled,#graph-div .disabled circle,#graph-div .disabled text{fill:lightgray;}#graph-div .disabled text{fill:#efefef;}#graph-div .section-9 rect,#graph-div .section-9 path,#graph-div .section-9 circle,#graph-div .section-9 polygon,#graph-div .section-9 path{fill:#00296f;}#graph-div .section-9 text{fill:lightgrey;}#graph-div .node-icon-9{font-size:40px;color:lightgrey;}#graph-div .section-edge-9{stroke:#00296f;}#graph-div .edge-depth-9{stroke-width:-13;}#graph-div .section-9 line{stroke:#ffd690;stroke-width:3;}#graph-div .disabled,#graph-div .disabled circle,#graph-div .disabled text{fill:lightgray;}#graph-div .disabled text{fill:#efefef;}#graph-div .section-10 rect,#graph-div .section-10 path,#graph-div .section-10 circle,#graph-div .section-10 polygon,#graph-div .section-10 path{fill:#01629c;}#graph-div .section-10 text{fill:lightgrey;}#graph-div .node-icon-10{font-size:40px;color:lightgrey;}#graph-div .section-edge-10{stroke:#01629c;}#graph-div .edge-depth-10{stroke-width:-16;}#graph-div .section-10 line{stroke:#fe9d63;stroke-width:3;}#graph-div .disabled,#graph-div .disabled circle,#graph-div .disabled text{fill:lightgray;}#graph-div .disabled text{fill:#efefef;}#graph-div .section-root rect,#graph-div .section-root path,#graph-div .section-root circle,#graph-div .section-root polygon{fill:hsl(180, 1.5873015873%, 48.3529411765%);}#graph-div .section-root text{fill:#2c2c2c;}#graph-div .icon-container{height:100%;display:flex;justify-content:center;align-items:center;}#graph-div .edge{fill:none;}#graph-div .mindmap-node-label{dy:1em;alignment-baseline:middle;text-anchor:middle;dominant-baseline:middle;text-align:center;}#graph-div :root{--mermaid-font-family:"trebuchet ms",verdana,arial,sans-serif;}</style><g></g><g></g><g class="mindmap-edges"><path class="edge section-edge-0 edge-depth-1" d="M 911.8786922654565,277.1106606137335 L 970.3964560477043,242.23026772129424 L1028.9142198299521,207.349874828855"></path><path class="edge section-edge-0 edge-depth-1" d="M 913.9929408951588,284.96771148556735 L 998.9067703374269,285.96935118860733 L1083.820599779695,286.9709908916473"></path><path class="edge section-edge-0 edge-depth-1" d="M 911.0916691012516,293.6590438350885 L 965.3296847697769,333.41845243736145 L1019.5677004383023,373.1778610396344"></path><path class="edge section-edge-0 edge-depth-0" d="M 648.8077249243333,274.4828410853822 L 766.4072122871598,279.3280666408103 L884.0066996499866,284.1732921962384"></path><path class="edge section-edge-1 edge-depth-1" d="M 689.1826412494493,150.23664502263617 L 714.764169586841,107.35910870948854 L740.345697924233,64.48157239634091"></path><path class="edge section-edge-1 edge-depth-1" d="M 695.3798268769826,168.79926300199884 L 754.096702672624,192.82747428007082 L812.8135784682654,216.85568555814274"></path><path class="edge section-edge-1 edge-depth-1" d="M 696.3077655245172,160.74148076613028 L 789.8960501033031,145.72277611852238 L883.484334682089,130.70407147091447"></path><path class="edge section-edge-1 edge-depth-0" d="M 639.7516883763512,260.08782018207995 L 657.6588492137722,218.49178273345078 L675.5660100511932,176.89574528482157"></path><path class="edge section-edge-2 edge-depth-1" d="M 348.0770449132697,314.9664082068331 L 298.6860140994452,280.36622205610064 L249.29498328562067,245.76603590536823"></path><path class="edge section-edge-2 edge-depth-1" d="M 345.4113834066021,322.36189550235093 L 241.3812159486717,313.93663170257963 L137.35104849074133,305.51136790280833"></path><path class="edge section-edge-2 edge-depth-1" d="M 345.94434836064795,327.71026134234137 L 246.50304079638153,356.24654434962446 L147.06173323211513,384.78282735690755"></path><path class="edge section-edge-2 edge-depth-1" d="M 359.6058600951764,338.55366864964435 L 357.807319733032,374.1667086522632 L356.00877937088757,409.7797486548819"></path><path class="edge section-edge-2 edge-depth-0" d="M 619.0622754357606,276.54799166372976 L 497.0914352876893,298.71905478177683 L375.12059513961805,320.8901178998239"></path><path class="edge section-edge-3 edge-depth-1" d="M 545.3897108449152,166.50025015065881 L 537.5240370989329,125.11729993119278 L529.6583633529507,83.73434971172675"></path><path class="edge section-edge-3 edge-depth-1" d="M 535.4663206424459,189.17948408346524 L 489.86372855256445,217.64658844759072 L444.26113646268306,246.11369281171613"></path><path class="edge section-edge-3 edge-depth-1" d="M 533.3380593632783,179.13847755097993 L 433.48665236302963,165.0343004565204 L333.635245362781,150.9301233620609"></path><path class="edge section-edge-3 edge-depth-0" d="M 623.6381389729808,262.850779293968 L 591.0055309784499,227.55088773493304 L558.372922983919,192.25099617589814"></path><path class="edge section-edge-4 edge-depth-1" d="M 584.6157997224989,391.6155165394503 L 576.5804033010764,431.72318247773524 L568.545006879654,471.83084841602016"></path><path class="edge section-edge-4 edge-depth-1" d="M 601.8701145411652,381.412244553921 L 691.847472621407,409.7396357564787 L781.8248307016487,438.0670269590364"></path><path class="edge section-edge-4 edge-depth-1" d="M 602.3957259870177,374.67768978569126 L 693.5195054220746,360.9777886446051 L784.6432848571316,347.2778875035189"></path><path class="edge section-edge-4 edge-depth-0" d="M 627.6772407288038,287.5496865810669 L 610.691434998611,325.38656683422346 L593.7056292684183,363.22344708738"></path></g><g class="mindmap-nodes"><g transform="translate(542.4287699768634, 254.86534842939417)" class="mindmap-node section--1 section-root"><g transform="translate(91.39167022705078, 19.000000381469725)"><circle r="91.39167022705078" class="node-bkg node-circle" id="node-0"></circle></g><g transform="translate(91.39167022705078, 5)" text-anchor="middle" dominant-baseline="middle" alignment-baseline="middle" dy="1em"><g><rect class="background"></rect><text y="-10.1"><tspan dy="1.1em" y="-0.1em" x="0" class="text-outer-tspan"><tspan font-weight="normal" class="text-inner-tspan" font-style="normal">Mobilne</tspan><tspan font-weight="normal" class="text-inner-tspan" font-style="normal"> Studio</tspan><tspan font-weight="normal" class="text-inner-tspan" font-style="normal"> Nagrań</tspan></tspan></text></g></g></g><g transform="translate(852.9773179580523, 265.79078408928694)" class="mindmap-node section-0"><g><path d="M0 33.00000076293945 v-28.00000076293945 q0,-5 5,-5 h82.03333282470703 q5,0 5,5 v33.00000076293945 H0 Z" class="node-bkg node-no-border" id="node-1"></path><line y2="38.00000076293945" x2="92.03333282470703" y1="38.00000076293945" x1="0" class="node-line-0"></line></g><g transform="translate(46.016666412353516, 5)" text-anchor="middle" dominant-baseline="middle" alignment-baseline="middle" dy="1em"><g><rect class="background"></rect><text y="-10.1"><tspan dy="1.1em" y="-0.1em" x="0" class="text-outer-tspan"><tspan font-weight="normal" class="text-inner-tspan" font-style="normal">Mobilność</tspan></tspan></text></g></g></g><g transform="translate(942.9489292508817, 171.86974944595295)" class="mindmap-node section-0"><g><path d="M0 50.60000305175781 v-45.60000305175781 q0,-5 5,-5 h187.6999969482422 q5,0 5,5 v50.60000305175781 H0 Z" class="node-bkg node-no-border" id="node-2"></path><line y2="55.60000305175781" x2="197.6999969482422" y1="55.60000305175781" x1="0" class="node-line-0"></line></g><g transform="translate(98.8499984741211, 5)" text-anchor="middle" dominant-baseline="middle" alignment-baseline="middle" dy="1em"><g><rect class="background"></rect><text y="-10.1"><tspan dy="1.1em" y="-0.1em" x="0" class="text-outer-tspan"><tspan font-weight="normal" class="text-inner-tspan" font-style="normal">Transportowalność</tspan><tspan font-weight="normal" class="text-inner-tspan" font-style="normal"> --</tspan></tspan><tspan dy="1.1em" y="1em" x="0" class="text-outer-tspan"><tspan font-weight="normal" class="text-inner-tspan" font-style="normal">"Łatwe</tspan><tspan font-weight="normal" class="text-inner-tspan" font-style="normal"> do</tspan><tspan font-weight="normal" class="text-inner-tspan" font-style="normal"> przewiezienia"</tspan></tspan></text></g></g></g><g transform="translate(1013.944556304448, 250.54791714351856)" class="mindmap-node section-0"><g><path d="M0 68.2000015258789 v-63.2000015258789 q0,-5 5,-5 h159.75 q5,0 5,5 v68.2000015258789 H0 Z" class="node-bkg node-no-border" id="node-3"></path><line y2="73.2000015258789" x2="169.75" y1="73.2000015258789" x1="0" class="node-line-0"></line></g><g transform="translate(84.875, 5)" text-anchor="middle" dominant-baseline="middle" alignment-baseline="middle" dy="1em"><g><rect class="background"></rect><text y="-10.1"><tspan dy="1.1em" y="-0.1em" x="0" class="text-outer-tspan"><tspan font-weight="normal" class="text-inner-tspan" font-style="normal">Łatwość_instalacji</tspan><tspan font-weight="normal" class="text-inner-tspan" font-style="normal"> --</tspan></tspan><tspan dy="1.1em" y="1em" x="0" class="text-outer-tspan"><tspan font-weight="normal" class="text-inner-tspan" font-style="normal">"Szybkie</tspan><tspan font-weight="normal" class="text-inner-tspan" font-style="normal"> ustawianie</tspan><tspan font-weight="normal" class="text-inner-tspan" font-style="normal"> i</tspan></tspan><tspan dy="1.1em" y="2.1em" x="0" class="text-outer-tspan"><tspan font-weight="normal" class="text-inner-tspan" font-style="normal">konfiguracja"</tspan></tspan></text></g></g></g><g transform="translate(924.9987134162184, 345.4461196410268)" class="mindmap-node section-0"><g><path d="M0 68.2000015258789 v-63.2000015258789 q0,-5 5,-5 h203.33334350585938 q5,0 5,5 v68.2000015258789 H0 Z" class="node-bkg node-no-border" id="node-4"></path><line y2="73.2000015258789" x2="213.33334350585938" y1="73.2000015258789" x1="0" class="node-line-0"></line></g><g transform="translate(106.66667175292969, 5)" text-anchor="middle" dominant-baseline="middle" alignment-baseline="middle" dy="1em"><g><rect class="background"></rect><text y="-10.1"><tspan dy="1.1em" y="-0.1em" x="0" class="text-outer-tspan"><tspan font-weight="normal" class="text-inner-tspan" font-style="normal">Adaptowalność</tspan><tspan font-weight="normal" class="text-inner-tspan" font-style="normal"> --</tspan></tspan><tspan dy="1.1em" y="1em" x="0" class="text-outer-tspan"><tspan font-weight="normal" class="text-inner-tspan" font-style="normal">"Funkcjonalność</tspan><tspan font-weight="normal" class="text-inner-tspan" font-style="normal"> w</tspan><tspan font-weight="normal" class="text-inner-tspan" font-style="normal"> różnych</tspan></tspan><tspan dy="1.1em" y="2.1em" x="0" class="text-outer-tspan"><tspan font-weight="normal" class="text-inner-tspan" font-style="normal">lokalizacjach"</tspan></tspan></text></g></g></g><g transform="translate(623.5389261618627, 144.11821627456789)" class="mindmap-node section-1"><g><path d="M0 33.00000076293945 v-28.00000076293945 q0,-5 5,-5 h105.91666412353516 q5,0 5,5 v33.00000076293945 H0 Z" class="node-bkg node-no-border" id="node-5"></path><line y2="38.00000076293945" x2="115.91666412353516" y1="38.00000076293945" x1="0" class="node-line-1"></line></g><g transform="translate(57.95833206176758, 5)" text-anchor="middle" dominant-baseline="middle" alignment-baseline="middle" dy="1em"><g><rect class="background"></rect><text y="-10.1"><tspan dy="1.1em" y="-0.1em" x="0" class="text-outer-tspan"><tspan font-weight="normal" class="text-inner-tspan" font-style="normal">Wyposażenie</tspan></tspan></text></g></g></g><g transform="translate(641.6144091971223, 15)" class="mindmap-node section-1"><g><path d="M0 68.2000015258789 v-63.2000015258789 q0,-5 5,-5 h202.83334350585938 q5,0 5,5 v68.2000015258789 H0 Z" class="node-bkg node-no-border" id="node-6"></path><line y2="73.2000015258789" x2="212.83334350585938" y1="73.2000015258789" x1="0" class="node-line-1"></line></g><g transform="translate(106.41667175292969, 5)" text-anchor="middle" dominant-baseline="middle" alignment-baseline="middle" dy="1em"><g><rect class="background"></rect><text y="-10.1"><tspan dy="1.1em" y="-0.1em" x="0" class="text-outer-tspan"><tspan font-weight="normal" class="text-inner-tspan" font-style="normal">Wysoka_jakość_dźwięku</tspan><tspan font-weight="normal" class="text-inner-tspan" font-style="normal"> --</tspan></tspan><tspan dy="1.1em" y="1em" x="0" class="text-outer-tspan"><tspan font-weight="normal" class="text-inner-tspan" font-style="normal">"Profesjonalne</tspan><tspan font-weight="normal" class="text-inner-tspan" font-style="normal"> mikrofony</tspan><tspan font-weight="normal" class="text-inner-tspan" font-style="normal"> i</tspan></tspan><tspan dy="1.1em" y="2.1em" x="0" class="text-outer-tspan"><tspan font-weight="normal" class="text-inner-tspan" font-style="normal">interfejsy"</tspan></tspan></text></g></g></g><g transform="translate(732.4711486474966, 194.73673037822505)" class="mindmap-node section-1"><g><path d="M0 50.60000305175781 v-45.60000305175781 q0,-5 5,-5 h178.4499969482422 q5,0 5,5 v50.60000305175781 H0 Z" class="node-bkg node-no-border" id="node-7"></path><line y2="55.60000305175781" x2="188.4499969482422" y1="55.60000305175781" x1="0" class="node-line-1"></line></g><g transform="translate(94.2249984741211, 5)" text-anchor="middle" dominant-baseline="middle" alignment-baseline="middle" dy="1em"><g><rect class="background"></rect><text y="-10.1"><tspan dy="1.1em" y="-0.1em" x="0" class="text-outer-tspan"><tspan font-weight="normal" class="text-inner-tspan" font-style="normal">Oprogramowanie</tspan><tspan font-weight="normal" class="text-inner-tspan" font-style="normal"> --</tspan><tspan font-weight="normal" class="text-inner-tspan" font-style="normal"> "Do</tspan></tspan><tspan dy="1.1em" y="1em" x="0" class="text-outer-tspan"><tspan font-weight="normal" class="text-inner-tspan" font-style="normal">nagrywania</tspan><tspan font-weight="normal" class="text-inner-tspan" font-style="normal"> i</tspan><tspan font-weight="normal" class="text-inner-tspan" font-style="normal"> edycji"</tspan></tspan></text></g></g></g><g transform="translate(798.8281748076829, 100.52733405512822)" class="mindmap-node section-1"><g><path d="M0 50.60000305175781 v-45.60000305175781 q0,-5 5,-5 h188.93333435058594 q5,0 5,5 v50.60000305175781 H0 Z" class="node-bkg node-no-border" id="node-8"></path><line y2="55.60000305175781" x2="198.93333435058594" y1="55.60000305175781" x1="0" class="node-line-1"></line></g><g transform="translate(99.46666717529297, 5)" text-anchor="middle" dominant-baseline="middle" alignment-baseline="middle" dy="1em"><g><rect class="background"></rect><text y="-10.1"><tspan dy="1.1em" y="-0.1em" x="0" class="text-outer-tspan"><tspan font-weight="normal" class="text-inner-tspan" font-style="normal">Sprzęt</tspan><tspan font-weight="normal" class="text-inner-tspan" font-style="normal"> --</tspan><tspan font-weight="normal" class="text-inner-tspan" font-style="normal"> "Wytrzymałość</tspan><tspan font-weight="normal" class="text-inner-tspan" font-style="normal"> i</tspan></tspan><tspan dy="1.1em" y="1em" x="0" class="text-outer-tspan"><tspan font-weight="normal" class="text-inner-tspan" font-style="normal">niezawodność"</tspan></tspan></text></g></g></g><g transform="translate(300.65409830969696, 304.57276037122006)" class="mindmap-node section-2"><g><path d="M0 33.00000076293945 v-28.00000076293945 q0,-5 5,-5 h109.41666412353516 q5,0 5,5 v33.00000076293945 H0 Z" class="node-bkg node-no-border" id="node-9"></path><line y2="38.00000076293945" x2="119.41666412353516" y1="38.00000076293945" x1="0" class="node-line-2"></line></g><g transform="translate(59.70833206176758, 5)" text-anchor="middle" dominant-baseline="middle" alignment-baseline="middle" dy="1em"><g><rect class="background"></rect><text y="-10.1"><tspan dy="1.1em" y="-0.1em" x="0" class="text-outer-tspan"><tspan font-weight="normal" class="text-inner-tspan" font-style="normal">Zastosowania</tspan></tspan></text></g></g></g><g transform="translate(152.40126042508206, 209.35968183363264)" class="mindmap-node section-2"><g><path d="M0 50.60000305175781 v-45.60000305175781 q0,-5 5,-5 h159.2166748046875 q5,0 5,5 v50.60000305175781 H0 Z" class="node-bkg node-no-border" id="node-10"></path><line y2="55.60000305175781" x2="169.2166748046875" y1="55.60000305175781" x1="0" class="node-line-2"></line></g><g transform="translate(84.60833740234375, 5)" text-anchor="middle" dominant-baseline="middle" alignment-baseline="middle" dy="1em"><g><rect class="background"></rect><text y="-10.1"><tspan dy="1.1em" y="-0.1em" x="0" class="text-outer-tspan"><tspan font-weight="normal" class="text-inner-tspan" font-style="normal">Muzyka_na_żywo</tspan><tspan font-weight="normal" class="text-inner-tspan" font-style="normal"> --</tspan></tspan><tspan dy="1.1em" y="1em" x="0" class="text-outer-tspan"><tspan font-weight="normal" class="text-inner-tspan" font-style="normal">"Koncerty</tspan><tspan font-weight="normal" class="text-inner-tspan" font-style="normal"> i</tspan><tspan font-weight="normal" class="text-inner-tspan" font-style="normal"> festiwale"</tspan></tspan></text></g></g></g><g transform="translate(15, 276.5005011265906)" class="mindmap-node section-2"><g><path d="M0 50.60000305175781 v-45.60000305175781 q0,-5 5,-5 h204.8000030517578 q5,0 5,5 v50.60000305175781 H0 Z" class="node-bkg node-no-border" id="node-11"></path><line y2="55.60000305175781" x2="214.8000030517578" y1="55.60000305175781" x1="0" class="node-line-2"></line></g><g transform="translate(107.4000015258789, 5)" text-anchor="middle" dominant-baseline="middle" alignment-baseline="middle" dy="1em"><g><rect class="background"></rect><text y="-10.1"><tspan dy="1.1em" y="-0.1em" x="0" class="text-outer-tspan"><tspan font-weight="normal" class="text-inner-tspan" font-style="normal">Podcasting_i_Audiobooki</tspan><tspan font-weight="normal" class="text-inner-tspan" font-style="normal"> --</tspan></tspan><tspan dy="1.1em" y="1em" x="0" class="text-outer-tspan"><tspan font-weight="normal" class="text-inner-tspan" font-style="normal">"Produkcja</tspan><tspan font-weight="normal" class="text-inner-tspan" font-style="normal"> treści</tspan><tspan font-weight="normal" class="text-inner-tspan" font-style="normal"> audio"</tspan></tspan></text></g></g></g><g transform="translate(34.6769840460056, 361.12032642068027)" class="mindmap-node section-2"><g><path d="M0 50.60000305175781 v-45.60000305175781 q0,-5 5,-5 h185.93333435058594 q5,0 5,5 v50.60000305175781 H0 Z" class="node-bkg node-no-border" id="node-12"></path><line y2="55.60000305175781" x2="195.93333435058594" y1="55.60000305175781" x1="0" class="node-line-2"></line></g><g transform="translate(97.96666717529297, 5)" text-anchor="middle" dominant-baseline="middle" alignment-baseline="middle" dy="1em"><g><rect class="background"></rect><text y="-10.1"><tspan dy="1.1em" y="-0.1em" x="0" class="text-outer-tspan"><tspan font-weight="normal" class="text-inner-tspan" font-style="normal">Nagrania_w_plenerze</tspan><tspan font-weight="normal" class="text-inner-tspan" font-style="normal"> --</tspan></tspan><tspan dy="1.1em" y="1em" x="0" class="text-outer-tspan"><tspan font-weight="normal" class="text-inner-tspan" font-style="normal">"Reportaże</tspan><tspan font-weight="normal" class="text-inner-tspan" font-style="normal"> i</tspan><tspan font-weight="normal" class="text-inner-tspan" font-style="normal"> dokumenty"</tspan></tspan></text></g></g></g><g transform="translate(250.37720909459944, 396.96065502595764)" class="mindmap-node section-2"><g><path d="M0 50.60000305175781 v-45.60000305175781 q0,-5 5,-5 h199.75 q5,0 5,5 v50.60000305175781 H0 Z" class="node-bkg node-no-border" id="node-13"></path><line y2="55.60000305175781" x2="209.75" y1="55.60000305175781" x1="0" class="node-line-2"></line></g><g transform="translate(104.875, 5)" text-anchor="middle" dominant-baseline="middle" alignment-baseline="middle" dy="1em"><g><rect class="background"></rect><text y="-10.1"><tspan dy="1.1em" y="-0.1em" x="0" class="text-outer-tspan"><tspan font-weight="normal" class="text-inner-tspan" font-style="normal">Film</tspan><tspan font-weight="normal" class="text-inner-tspan" font-style="normal"> --</tspan><tspan font-weight="normal" class="text-inner-tspan" font-style="normal"> "Dźwięk</tspan><tspan font-weight="normal" class="text-inner-tspan" font-style="normal"> na</tspan><tspan font-weight="normal" class="text-inner-tspan" font-style="normal"> planach</tspan></tspan><tspan dy="1.1em" y="1em" x="0" class="text-outer-tspan"><tspan font-weight="normal" class="text-inner-tspan" font-style="normal">filmowych"</tspan></tspan></text></g></g></g><g transform="translate(494.6406225159251, 162.23642627753247)" class="mindmap-node section-3"><g><path d="M0 33.00000076293945 v-28.00000076293945 q0,-5 5,-5 h97.0999984741211 q5,0 5,5 v33.00000076293945 H0 Z" class="node-bkg node-no-border" id="node-14"></path><line y2="38.00000076293945" x2="107.0999984741211" y1="38.00000076293945" x1="0" class="node-line-3"></line></g><g transform="translate(53.54999923706055, 5)" text-anchor="middle" dominant-baseline="middle" alignment-baseline="middle" dy="1em"><g><rect class="background"></rect><text y="-10.1"><tspan dy="1.1em" y="-0.1em" x="0" class="text-outer-tspan"><tspan font-weight="normal" class="text-inner-tspan" font-style="normal">Właściwości</tspan></tspan></text></g></g></g><g transform="translate(434.1574478672435, 32.39817244044389)" class="mindmap-node section-3"><g><path d="M0 68.2000015258789 v-63.2000015258789 q0,-5 5,-5 h175.40000915527344 q5,0 5,5 v68.2000015258789 H0 Z" class="node-bkg node-no-border" id="node-15"></path><line y2="73.2000015258789" x2="185.40000915527344" y1="73.2000015258789" x1="0" class="node-line-3"></line></g><g transform="translate(92.70000457763672, 5)" text-anchor="middle" dominant-baseline="middle" alignment-baseline="middle" dy="1em"><g><rect class="background"></rect><text y="-10.1"><tspan dy="1.1em" y="-0.1em" x="0" class="text-outer-tspan"><tspan font-weight="normal" class="text-inner-tspan" font-style="normal">Samowystarczalność</tspan><tspan font-weight="normal" class="text-inner-tspan" font-style="normal"> --</tspan></tspan><tspan dy="1.1em" y="1em" x="0" class="text-outer-tspan"><tspan font-weight="normal" class="text-inner-tspan" font-style="normal">"Niezależne</tspan><tspan font-weight="normal" class="text-inner-tspan" font-style="normal"> źródła</tspan></tspan><tspan dy="1.1em" y="2.1em" x="0" class="text-outer-tspan"><tspan font-weight="normal" class="text-inner-tspan" font-style="normal">zasilania"</tspan></tspan></text></g></g></g><g transform="translate(340.8535010015574, 217.4567494732397)" class="mindmap-node section-3"><g><path d="M0 68.2000015258789 v-63.2000015258789 q0,-5 5,-5 h171.36666870117188 q5,0 5,5 v68.2000015258789 H0 Z" class="node-bkg node-no-border" id="node-16"></path><line y2="73.2000015258789" x2="181.36666870117188" y1="73.2000015258789" x1="0" class="node-line-3"></line></g><g transform="translate(90.68333435058594, 5)" text-anchor="middle" dominant-baseline="middle" alignment-baseline="middle" dy="1em"><g><rect class="background"></rect><text y="-10.1"><tspan dy="1.1em" y="-0.1em" x="0" class="text-outer-tspan"><tspan font-weight="normal" class="text-inner-tspan" font-style="normal">Izolacja_akustyczna</tspan><tspan font-weight="normal" class="text-inner-tspan" font-style="normal"> --</tspan></tspan><tspan dy="1.1em" y="1em" x="0" class="text-outer-tspan"><tspan font-weight="normal" class="text-inner-tspan" font-style="normal">"Kontrola</tspan><tspan font-weight="normal" class="text-inner-tspan" font-style="normal"> nad</tspan><tspan font-weight="normal" class="text-inner-tspan" font-style="normal"> hałasem</tspan></tspan><tspan dy="1.1em" y="2.1em" x="0" class="text-outer-tspan"><tspan font-weight="normal" class="text-inner-tspan" font-style="normal">otoczenia"</tspan></tspan></text></g></g></g><g transform="translate(211.67434557072994, 112.23217349109916)" class="mindmap-node section-3"><g><path d="M0 68.2000015258789 v-63.2000015258789 q0,-5 5,-5 h204.2166748046875 q5,0 5,5 v68.2000015258789 H0 Z" class="node-bkg node-no-border" id="node-17"></path><line y2="73.2000015258789" x2="214.2166748046875" y1="73.2000015258789" x1="0" class="node-line-3"></line></g><g transform="translate(107.10833740234375, 5)" text-anchor="middle" dominant-baseline="middle" alignment-baseline="middle" dy="1em"><g><rect class="background"></rect><text y="-10.1"><tspan dy="1.1em" y="-0.1em" x="0" class="text-outer-tspan"><tspan font-weight="normal" class="text-inner-tspan" font-style="normal">Minimalizacja_hałasu</tspan><tspan font-weight="normal" class="text-inner-tspan" font-style="normal"> --</tspan></tspan><tspan dy="1.1em" y="1em" x="0" class="text-outer-tspan"><tspan font-weight="normal" class="text-inner-tspan" font-style="normal">"Konstrukcje</tspan><tspan font-weight="normal" class="text-inner-tspan" font-style="normal"> zmniejszające</tspan></tspan><tspan dy="1.1em" y="2.1em" x="0" class="text-outer-tspan"><tspan font-weight="normal" class="text-inner-tspan" font-style="normal">zakłócenia"</tspan></tspan></text></g></g></g><g transform="translate(507.73743284506577, 357.9077844761133)" class="mindmap-node section-4"><g><path d="M0 33.00000076293945 v-28.00000076293945 q0,-5 5,-5 h149.64999389648438 q5,0 5,5 v33.00000076293945 H0 Z" class="node-bkg node-no-border" id="node-18"></path><line y2="38.00000076293945" x2="159.64999389648438" y1="38.00000076293945" x1="0" class="node-line-4"></line></g><g transform="translate(79.82499694824219, 5)" text-anchor="middle" dominant-baseline="middle" alignment-baseline="middle" dy="1em"><g><rect class="background"></rect><text y="-10.1"><tspan dy="1.1em" y="-0.1em" x="0" class="text-outer-tspan"><tspan font-weight="normal" class="text-inner-tspan" font-style="normal">Dodatkowe_funkcje</tspan></tspan></text></g></g></g><g transform="translate(456.20670658179415, 458.7385785720086)" class="mindmap-node section-4"><g><path d="M0 50.60000305175781 v-45.60000305175781 q0,-5 5,-5 h208.78334045410156 q5,0 5,5 v50.60000305175781 H0 Z" class="node-bkg node-no-border" id="node-19"></path><line y2="55.60000305175781" x2="218.78334045410156" y1="55.60000305175781" x1="0" class="node-line-4"></line></g><g transform="translate(109.39167022705078, 5)" text-anchor="middle" dominant-baseline="middle" alignment-baseline="middle" dy="1em"><g><rect class="background"></rect><text y="-10.1"><tspan dy="1.1em" y="-0.1em" x="0" class="text-outer-tspan"><tspan font-weight="normal" class="text-inner-tspan" font-style="normal">Streaming</tspan><tspan font-weight="normal" class="text-inner-tspan" font-style="normal"> --</tspan><tspan font-weight="normal" class="text-inner-tspan" font-style="normal"> "Transmisje</tspan><tspan font-weight="normal" class="text-inner-tspan" font-style="normal"> na</tspan></tspan><tspan dy="1.1em" y="1em" x="0" class="text-outer-tspan"><tspan font-weight="normal" class="text-inner-tspan" font-style="normal">żywo"</tspan></tspan></text></g></g></g><g transform="translate(695.4241795730411, 414.77148512949555)" class="mindmap-node section-4"><g><path d="M0 50.60000305175781 v-45.60000305175781 q0,-5 5,-5 h191.4166717529297 q5,0 5,5 v50.60000305175781 H0 Z" class="node-bkg node-no-border" id="node-20"></path><line y2="55.60000305175781" x2="201.4166717529297" y1="55.60000305175781" x1="0" class="node-line-4"></line></g><g transform="translate(100.70833587646484, 5)" text-anchor="middle" dominant-baseline="middle" alignment-baseline="middle" dy="1em"><g><rect class="background"></rect><text y="-10.1"><tspan dy="1.1em" y="-0.1em" x="0" class="text-outer-tspan"><tspan font-weight="normal" class="text-inner-tspan" font-style="normal">Kontrola_i_wizualizacja</tspan><tspan font-weight="normal" class="text-inner-tspan" font-style="normal"> --</tspan></tspan><tspan dy="1.1em" y="1em" x="0" class="text-outer-tspan"><tspan font-weight="normal" class="text-inner-tspan" font-style="normal">"Miksery</tspan><tspan font-weight="normal" class="text-inner-tspan" font-style="normal"> i</tspan><tspan font-weight="normal" class="text-inner-tspan" font-style="normal"> kontrolery"</tspan></tspan></text></g></g></g><g transform="translate(703.0182451743765, 317.2477909057483)" class="mindmap-node section-4"><g><path d="M0 50.60000305175781 v-45.60000305175781 q0,-5 5,-5 h182.9166717529297 q5,0 5,5 v50.60000305175781 H0 Z" class="node-bkg node-no-border" id="node-21"></path><line y2="55.60000305175781" x2="192.9166717529297" y1="55.60000305175781" x1="0" class="node-line-4"></line></g><g transform="translate(96.45833587646484, 5)" text-anchor="middle" dominant-baseline="middle" alignment-baseline="middle" dy="1em"><g><rect class="background"></rect><text y="-10.1"><tspan dy="1.1em" y="-0.1em" x="0" class="text-outer-tspan"><tspan font-weight="normal" class="text-inner-tspan" font-style="normal">Redundancja</tspan><tspan font-weight="normal" class="text-inner-tspan" font-style="normal"> --</tspan><tspan font-weight="normal" class="text-inner-tspan" font-style="normal"> "Backup</tspan></tspan><tspan dy="1.1em" y="1em" x="0" class="text-outer-tspan"><tspan font-weight="normal" class="text-inner-tspan" font-style="normal">danych</tspan><tspan font-weight="normal" class="text-inner-tspan" font-style="normal"> i</tspan><tspan font-weight="normal" class="text-inner-tspan" font-style="normal"> zapisów"</tspan></tspan></text></g></g></g></g></g><defs><style id="svg-pan-zoom-controls-styles" type="text/css">.svg-pan-zoom-control { cursor: pointer; fill: black; fill-opacity: 0.333; } .svg-pan-zoom-control:hover { fill-opacity: 0.8; } .svg-pan-zoom-control-background { fill: white; fill-opacity: 0.5; } .svg-pan-zoom-control-background { fill-opacity: 0.8; }</style></defs><g id="svg-pan-zoom-controls" transform="translate(1123 983) scale(0.75)" class="svg-pan-zoom-control"><g id="svg-pan-zoom-zoom-in" transform="translate(30.5 5) scale(0.015)" class="svg-pan-zoom-control"><rect x="0" y="0" width="1500" height="1400" class="svg-pan-zoom-control-background"></rect><path d="M1280 576v128q0 26 -19 45t-45 19h-320v320q0 26 -19 45t-45 19h-128q-26 0 -45 -19t-19 -45v-320h-320q-26 0 -45 -19t-19 -45v-128q0 -26 19 -45t45 -19h320v-320q0 -26 19 -45t45 -19h128q26 0 45 19t19 45v320h320q26 0 45 19t19 45zM1536 1120v-960 q0 -119 -84.5 -203.5t-203.5 -84.5h-960q-119 0 -203.5 84.5t-84.5 203.5v960q0 119 84.5 203.5t203.5 84.5h960q119 0 203.5 -84.5t84.5 -203.5z" class="svg-pan-zoom-control-element"></path></g><g id="svg-pan-zoom-reset-pan-zoom" transform="translate(5 35) scale(0.4)" class="svg-pan-zoom-control"><rect x="2" y="2" width="182" height="58" class="svg-pan-zoom-control-background"></rect><path d="M33.051,20.632c-0.742-0.406-1.854-0.609-3.338-0.609h-7.969v9.281h7.769c1.543,0,2.701-0.188,3.473-0.562c1.365-0.656,2.048-1.953,2.048-3.891C35.032,22.757,34.372,21.351,33.051,20.632z" class="svg-pan-zoom-control-element"></path><path d="M170.231,0.5H15.847C7.102,0.5,0.5,5.708,0.5,11.84v38.861C0.5,56.833,7.102,61.5,15.847,61.5h154.384c8.745,0,15.269-4.667,15.269-10.798V11.84C185.5,5.708,178.976,0.5,170.231,0.5z M42.837,48.569h-7.969c-0.219-0.766-0.375-1.383-0.469-1.852c-0.188-0.969-0.289-1.961-0.305-2.977l-0.047-3.211c-0.03-2.203-0.41-3.672-1.142-4.406c-0.732-0.734-2.103-1.102-4.113-1.102h-7.05v13.547h-7.055V14.022h16.524c2.361,0.047,4.178,0.344,5.45,0.891c1.272,0.547,2.351,1.352,3.234,2.414c0.731,0.875,1.31,1.844,1.737,2.906s0.64,2.273,0.64,3.633c0,1.641-0.414,3.254-1.242,4.84s-2.195,2.707-4.102,3.363c1.594,0.641,2.723,1.551,3.387,2.73s0.996,2.98,0.996,5.402v2.32c0,1.578,0.063,2.648,0.19,3.211c0.19,0.891,0.635,1.547,1.333,1.969V48.569z M75.579,48.569h-26.18V14.022h25.336v6.117H56.454v7.336h16.781v6H56.454v8.883h19.125V48.569z M104.497,46.331c-2.44,2.086-5.887,3.129-10.34,3.129c-4.548,0-8.125-1.027-10.731-3.082s-3.909-4.879-3.909-8.473h6.891c0.224,1.578,0.662,2.758,1.316,3.539c1.196,1.422,3.246,2.133,6.15,2.133c1.739,0,3.151-0.188,4.236-0.562c2.058-0.719,3.087-2.055,3.087-4.008c0-1.141-0.504-2.023-1.512-2.648c-1.008-0.609-2.607-1.148-4.796-1.617l-3.74-0.82c-3.676-0.812-6.201-1.695-7.576-2.648c-2.328-1.594-3.492-4.086-3.492-7.477c0-3.094,1.139-5.664,3.417-7.711s5.623-3.07,10.036-3.07c3.685,0,6.829,0.965,9.431,2.895c2.602,1.93,3.966,4.73,4.093,8.402h-6.938c-0.128-2.078-1.057-3.555-2.787-4.43c-1.154-0.578-2.587-0.867-4.301-0.867c-1.907,0-3.428,0.375-4.565,1.125c-1.138,0.75-1.706,1.797-1.706,3.141c0,1.234,0.561,2.156,1.682,2.766c0.721,0.406,2.25,0.883,4.589,1.43l6.063,1.43c2.657,0.625,4.648,1.461,5.975,2.508c2.059,1.625,3.089,3.977,3.089,7.055C108.157,41.624,106.937,44.245,104.497,46.331z M139.61,48.569h-26.18V14.022h25.336v6.117h-18.281v7.336h16.781v6h-16.781v8.883h19.125V48.569z M170.337,20.14h-10.336v28.43h-7.266V20.14h-10.383v-6.117h27.984V20.14z" class="svg-pan-zoom-control-element"></path></g><g id="svg-pan-zoom-zoom-out" transform="translate(30.5 70) scale(0.015)" class="svg-pan-zoom-control"><rect x="0" y="0" width="1500" height="1400" class="svg-pan-zoom-control-background"></rect><path d="M1280 576v128q0 26 -19 45t-45 19h-896q-26 0 -45 -19t-19 -45v-128q0 -26 19 -45t45 -19h896q26 0 45 19t19 45zM1536 1120v-960q0 -119 -84.5 -203.5t-203.5 -84.5h-960q-119 0 -203.5 84.5t-84.5 203.5v960q0 119 84.5 203.5t203.5 84.5h960q119 0 203.5 -84.5 t84.5 -203.5z" class="svg-pan-zoom-control-element"></path></g></g></svg>